<?xml version='1.0' encoding='utf-8'?>
<svg xmlns="http://www.w3.org/2000/svg" width="3840" height="2160" viewBox="0 0 3840 2160" version="1.1"> <defs> <radialGradient id="sky" cx="2048" cy="1152" r="1920" gradientTransform="translate(-1920,0) scale(1.5,1)" gradientUnits="userSpaceOnUse"> <stop offset="0.2" stop-color="rgb(115, 130, 130)"/> <stop offset="0.8" stop-color="rgb(62, 86, 114)"/> </radialGradient> <radialGradient id="bird" r="1920" gradientUnits="userSpaceOnUse"> <stop offset="0.2" stop-color="rgb(50, 60, 60)"/> <stop offset="0.8" stop-color="rgb(62, 86, 114)"/> </radialGradient> <filter id="blur"> <feGaussianBlur in="SourceGraphic" stdDeviation="1"/> </filter> <linearGradient id="sea" x1="0" y1="1" x2="0" y2="0" gradientTransform="rotate(10)"> <stop offset="80%" stop-color="rgb(25, 75, 130)" stop-opacity="0.25"/> <stop offset="99%" stop-color="rgb(240, 240, 240)" stop-opacity="0.5"/> </linearGradient> <clipPath id="clip"> <rect x="0" y="0" width="3840" height="2160"/> </clipPath> </defs> <rect fill="url(#sky)" width="3840" height="2160"/> <g stroke="url(#bird)" stroke-width="1" stroke-opacity="0.75" fill="url(#bird)" fill-opacity="0.75" filter="url(#blur)"> <polygon points="3032,704 3034,673 3048,700 "/> <polygon points="3048,700 3076,695 3050,701 "/> <polygon points="3050,701 3067,683 3034,704 "/> <polygon points="3028,705 3032,704 3034,704 "/> <polygon points="3032,704 3048,700 3050,701 3034,704 "/> <polygon points="2684,605 2684,565 2725,596 "/> <polygon points="2738,591 2835,571 2747,594 "/> <polygon points="2765,608 2815,606 2723,617 "/> <polygon points="2668,610 2683,604 2692,606 "/> <polygon points="2683,604 2738,591 2747,594 2692,606 "/> <polygon points="2747,594 2765,608 2723,617 2692,606 "/> <polygon points="2683,604 2684,605 2725,596 2738,591 "/> <polygon points="2639,654 2639,667 2658,649 "/> <polygon points="2658,649 2692,643 2661,650 "/> <polygon points="2661,650 2687,681 2642,655 "/> <polygon points="2633,656 2639,654 2642,655 "/> <polygon points="2639,654 2658,649 2661,650 2642,655 "/> <polygon points="2814,620 2821,666 2882,605 "/> <polygon points="2882,605 3001,582 2892,609 "/> <polygon points="2892,609 2975,713 2824,624 "/> <polygon points="2795,627 2814,620 2824,624 "/> <polygon points="2814,620 2882,605 2892,609 2824,624 "/> <polygon points="2507,464 2506,486 2541,455 "/> <polygon points="2541,455 2602,442 2547,457 "/> <polygon points="2547,457 2594,514 2513,466 "/> <polygon points="2498,468 2507,464 2513,466 "/> <polygon points="2507,464 2541,455 2547,457 2513,466 "/> <polygon points="2452,399 2446,341 2504,385 "/> <polygon points="2522,380 2646,350 2534,384 "/> <polygon points="2558,403 2627,403 2506,417 "/> <polygon points="2434,408 2453,399 2465,403 "/> <polygon points="2453,399 2522,380 2534,384 2465,403 "/> <polygon points="2534,384 2558,403 2506,417 2465,403 "/> <polygon points="2453,399 2452,399 2504,385 2522,380 "/> <polygon points="2270,374 2260,308 2327,358 "/> <polygon points="2349,352 2485,318 2363,357 "/> <polygon points="2391,379 2470,379 2334,395 "/> <polygon points="2254,384 2273,374 2287,379 "/> <polygon points="2273,374 2349,352 2363,357 2287,379 "/> <polygon points="2363,357 2391,379 2334,395 2287,379 "/> <polygon points="2273,374 2270,374 2327,358 2349,352 "/> <polygon points="2479,557 2477,529 2506,550 "/> <polygon points="2515,547 2577,534 2521,549 "/> <polygon points="2533,559 2569,558 2507,565 "/> <polygon points="2470,560 2480,556 2486,558 "/> <polygon points="2480,556 2515,547 2521,549 2486,558 "/> <polygon points="2521,549 2533,559 2507,565 2486,558 "/> <polygon points="2480,556 2479,557 2506,550 2515,547 "/> <polygon points="2641,553 2641,525 2669,546 "/> <polygon points="2679,543 2745,529 2685,545 "/> <polygon points="2697,555 2733,554 2669,562 "/> <polygon points="2630,556 2641,552 2647,554 "/> <polygon points="2641,552 2679,543 2685,545 2647,554 "/> <polygon points="2685,545 2697,555 2669,562 2647,554 "/> <polygon points="2641,552 2641,553 2669,546 2679,543 "/> <polygon points="2366,695 2362,720 2400,687 "/> <polygon points="2400,687 2459,675 2406,689 "/> <polygon points="2406,689 2454,744 2372,696 "/> <polygon points="2357,698 2366,695 2372,696 "/> <polygon points="2366,695 2400,687 2406,689 2372,696 "/> <polygon points="3440,722 3453,683 3486,713 "/> <polygon points="3496,708 3602,690 3503,710 "/> <polygon points="3518,724 3561,721 3472,732 "/> <polygon points="3417,724 3435,719 3442,722 "/> <polygon points="3435,719 3496,708 3503,710 3442,722 "/> <polygon points="3503,710 3518,724 3472,732 3442,722 "/> <polygon points="3435,719 3440,722 3486,713 3496,708 "/> <polygon points="2306,552 2293,399 2374,535 "/> <polygon points="2374,535 2495,508 2386,539 "/> <polygon points="2386,539 2479,459 2318,556 "/> <polygon points="2288,560 2306,552 2318,556 "/> <polygon points="2306,552 2374,535 2386,539 2318,556 "/> <polygon points="2568,520 2567,502 2585,516 "/> <polygon points="2591,514 2631,505 2595,515 "/> <polygon points="2602,521 2625,521 2585,526 "/> <polygon points="2561,522 2568,520 2572,521 "/> <polygon points="2568,520 2591,514 2595,515 2572,521 "/> <polygon points="2595,515 2602,521 2585,526 2572,521 "/> <polygon points="2568,520 2568,520 2585,516 2591,514 "/> <polygon points="2351,292 2342,159 2408,275 "/> <polygon points="2408,275 2509,248 2419,279 "/> <polygon points="2419,279 2496,216 2362,295 "/> <polygon points="2336,299 2351,292 2362,295 "/> <polygon points="2351,292 2408,275 2419,279 2362,295 "/> <polygon points="2686,597 2686,555 2728,587 "/> <polygon points="2741,582 2839,562 2750,585 "/> <polygon points="2768,599 2819,597 2726,609 "/> <polygon points="2670,601 2685,595 2694,598 "/> <polygon points="2685,595 2741,582 2750,585 2694,598 "/> <polygon points="2750,585 2768,599 2726,609 2694,598 "/> <polygon points="2685,595 2686,597 2728,587 2741,582 "/> <polygon points="3179,687 3187,649 3223,678 "/> <polygon points="3234,673 3335,655 3241,676 "/> <polygon points="3257,690 3302,687 3214,698 "/> <polygon points="3159,691 3176,685 3183,688 "/> <polygon points="3176,685 3234,673 3241,676 3183,688 "/> <polygon points="3241,676 3257,690 3214,698 3183,688 "/> <polygon points="3176,685 3179,687 3223,678 3234,673 "/> </g> <g stroke="none" stroke-width="1" fill="url(#sea)" clip-path="url(#clip)"> <polygon transform="translate(0,128)" points="-439,1499 -460,1522 -481,1546 -501,1570 -520,1595 -538,1619 -554,1644 -568,1669 -581,1694 -593,1719 -602,1744 -609,1769 -614,1794 -617,1819 -617,1843 -615,1867 -611,1891 -604,1915 -594,1938 -581,1961 -565,1984 -546,2006 -524,2027 -499,2048 -471,2069 -440,2088 -405,2108 -366,2126 -325,2144 -279,2162 -230,2178 -178,2194 -121,2210 -61,2225 2,2239 70,2252 142,2265 218,2277 298,2288 382,2299 469,2309 559,2318 652,2326 748,2334 847,2342 947,2348 1050,2354 1155,2359 1261,2363 1369,2367 1478,2370 1587,2373 1698,2374 1809,2375 1920,2376 2031,2375 2142,2374 2252,2373 2362,2370 2470,2367 2578,2363 2684,2359 2789,2354 2892,2348 2993,2341 3091,2334 3187,2326 3280,2318 3371,2309 3458,2299 3541,2288 3621,2277 3697,2265 3769,2252 3837,2239 3901,2225 3961,2210 4018,2194 4070,2178 4118,2162 4163,2144 4204,2126 4242,2108 4276,2088 4306,2068 4333,2048 4356,2027 4376,2006 4393,1984 4406,1961 4416,1938 4423,1915 4427,1891 4428,1867 4426,1843 4421,1819 4414,1794 4404,1769 4391,1744 4376,1719 4359,1694 4340,1669 4318,1644 4295,1619 4270,1595 4244,1570 4216,1546 4186,1522 4155,1499 4124,1476 4091,1453 4058,1431 4024,1410 3989,1389 3953,1369 3917,1349 3881,1331 3844,1313 3807,1296 3769,1280 3732,1265 3694,1250 3656,1237 3618,1224 3580,1212 3542,1201 3504,1191 3466,1182 3428,1174 3391,1166 3353,1160 3315,1154 3278,1149 3241,1145 3203,1142 3166,1140 3129,1138 3092,1137 3056,1137 3019,1138 2983,1140 2946,1142 2910,1145 2874,1149 2838,1154 2802,1159 2766,1165 2730,1171 2694,1178 2659,1186 2624,1193 2589,1201 2554,1210 2520,1218 2486,1227 2452,1236 2418,1244 2385,1253 2352,1262 2320,1271 2288,1279 2256,1288 2224,1296 2193,1304 2162,1312 2132,1320 2101,1327 2071,1334 2041,1341 2012,1347 1982,1353 1953,1358 1924,1363 1895,1368 1867,1372 1838,1375 1810,1378 1782,1380 1753,1382 1725,1383 1697,1383 1669,1383 1641,1382 1613,1380 1585,1378 1556,1375 1528,1372 1499,1368 1471,1363 1442,1358 1413,1353 1384,1347 1354,1341 1325,1334 1295,1327 1265,1320 1235,1312 1205,1304 1174,1296 1143,1288 1112,1279 1081,1271 1050,1262 1018,1253 986,1244 954,1236 922,1227 889,1218 857,1210 824,1201 792,1193 759,1186 726,1178 693,1171 661,1165 628,1159 596,1154 563,1149 531,1145 499,1142 468,1140 436,1138 405,1137 374,1137 343,1138 312,1140 281,1142 251,1145 220,1149 190,1154 160,1160 130,1166 100,1174 70,1182 41,1191 11,1201 -17,1212 -46,1224 -74,1237 -103,1250 -131,1265 -159,1280 -187,1296 -214,1313 -241,1331 -267,1349 -293,1369 -319,1389 -344,1410 -369,1431 -393,1453 -416,1476"/> <polygon transform="translate(0,128)" points="-316,1395 -346,1411 -376,1429 -404,1448 -430,1470 -455,1493 -478,1518 -500,1545 -519,1573 -536,1603 -551,1634 -564,1666 -574,1699 -581,1734 -586,1769 -588,1805 -587,1842 -583,1879 -576,1917 -566,1955 -553,1993 -536,2032 -516,2070 -493,2108 -466,2146 -436,2183 -402,2220 -364,2257 -323,2293 -278,2328 -230,2362 -177,2395 -121,2427 -61,2458 2,2487 70,2516 142,2542 218,2568 298,2592 382,2615 469,2636 559,2655 652,2674 748,2690 847,2706 947,2720 1050,2732 1155,2743 1261,2752 1369,2760 1478,2767 1587,2772 1698,2776 1809,2778 1920,2779 2031,2778 2142,2776 2252,2772 2362,2767 2470,2760 2578,2752 2684,2743 2789,2732 2892,2720 2993,2706 3091,2690 3187,2674 3280,2655 3371,2636 3458,2615 3541,2592 3621,2568 3697,2542 3769,2515 3837,2487 3901,2458 3962,2427 4018,2395 4071,2362 4119,2327 4165,2293 4207,2257 4245,2220 4280,2183 4311,2146 4339,2108 4364,2070 4386,2032 4405,1993 4421,1955 4434,1917 4444,1879 4451,1842 4455,1805 4457,1769 4457,1734 4454,1699 4449,1666 4442,1634 4433,1602 4421,1573 4408,1545 4394,1518 4378,1493 4360,1470 4341,1448 4321,1429 4300,1411 4279,1395 4256,1382 4233,1370 4209,1360 4184,1352 4159,1345 4133,1339 4107,1335 4081,1332 4054,1330 4027,1329 3999,1329 3971,1329 3943,1330 3914,1332 3886,1333 3857,1336 3827,1338 3798,1340 3769,1343 3739,1345 3709,1348 3679,1350 3649,1352 3619,1354 3588,1355 3558,1356 3527,1357 3496,1357 3465,1357 3434,1356 3403,1355 3371,1353 3340,1350 3308,1347 3276,1343 3243,1339 3211,1333 3178,1328 3146,1321 3113,1314 3080,1307 3047,1299 3015,1291 2982,1283 2950,1274 2917,1265 2885,1257 2853,1248 2821,1239 2789,1230 2758,1222 2727,1213 2696,1205 2665,1196 2634,1188 2604,1180 2574,1173 2544,1165 2514,1158 2485,1152 2455,1146 2426,1140 2397,1134 2368,1129 2340,1125 2311,1121 2283,1117 2254,1114 2226,1112 2198,1110 2170,1109 2142,1109 2114,1109 2085,1110 2057,1112 2029,1114 2001,1117 1972,1121 1944,1125 1915,1129 1886,1134 1857,1140 1827,1146 1798,1152 1768,1158 1738,1165 1707,1173 1677,1180 1646,1188 1615,1196 1583,1205 1551,1213 1519,1222 1486,1230 1454,1239 1421,1248 1387,1257 1353,1265 1319,1274 1285,1283 1250,1291 1215,1299 1180,1307 1145,1314 1109,1321 1073,1328 1037,1333 1001,1339 965,1343 929,1347 893,1350 856,1353 820,1355 783,1356 747,1357 710,1357 673,1357 636,1356 598,1355 561,1354 524,1352 486,1350 448,1348 411,1345 373,1343 335,1340 297,1338 259,1336 221,1333 183,1332 145,1330 107,1329 70,1329 32,1329 -4,1330 -41,1332 -77,1335 -113,1339 -149,1345 -184,1352 -218,1360 -251,1370 -284,1382 "/> <polygon transform="translate(0,128)" points="-500,1571 -518,1587 -534,1605 -550,1625 -565,1647 -579,1670 -592,1695 -603,1721 -613,1749 -621,1778 -627,1808 -632,1839 -634,1871 -635,1905 -633,1939 -629,1973 -623,2009 -614,2044 -602,2080 -588,2117 -571,2153 -551,2190 -529,2226 -503,2262 -474,2298 -442,2334 -406,2369 -368,2403 -325,2437 -280,2470 -231,2502 -178,2533 -122,2563 -61,2592 2,2620 70,2647 142,2672 218,2696 298,2719 382,2740 469,2760 559,2778 652,2796 748,2811 847,2826 947,2839 1050,2850 1155,2861 1261,2870 1369,2877 1478,2883 1587,2888 1698,2892 1809,2894 1920,2894 2031,2894 2142,2892 2252,2888 2362,2883 2470,2877 2578,2870 2684,2861 2789,2850 2892,2839 2993,2826 3091,2811 3187,2796 3280,2778 3371,2760 3458,2740 3541,2719 3621,2696 3697,2672 3769,2647 3837,2620 3901,2592 3961,2563 4017,2533 4070,2502 4118,2470 4162,2437 4203,2403 4240,2368 4274,2333 4303,2298 4330,2262 4352,2226 4371,2189 4387,2153 4399,2117 4408,2080 4413,2044 4415,2008 4414,1973 4411,1938 4404,1904 4394,1871 4381,1839 4366,1808 4348,1778 4328,1749 4305,1721 4281,1695 4254,1670 4225,1647 4195,1625 4163,1605 4129,1587 4094,1571 4058,1556 4021,1544 3982,1533 3943,1524 3904,1516 3863,1510 3822,1505 3781,1502 3739,1500 3697,1499 3655,1499 3612,1501 3570,1503 3527,1506 3485,1510 3442,1515 3400,1521 3357,1527 3315,1534 3273,1542 3231,1550 3190,1558 3149,1567 3108,1577 3067,1586 3026,1596 2986,1607 2946,1617 2906,1628 2867,1638 2827,1649 2788,1661 2750,1672 2711,1683 2673,1694 2635,1706 2597,1717 2559,1729 2522,1740 2485,1751 2448,1762 2412,1774 2376,1784 2340,1795 2305,1806 2270,1816 2235,1826 2201,1836 2167,1846 2134,1855 2101,1864 2068,1873 2036,1881 2004,1889 1973,1897 1941,1904 1910,1912 1880,1918 1850,1925 1820,1930 1790,1936 1760,1941 1731,1946 1702,1950 1673,1954 1645,1957 1616,1960 1588,1963 1559,1965 1531,1966 1503,1967 1475,1967 1447,1967 1419,1966 1391,1965 1362,1963 1334,1960 1306,1957 1277,1954 1249,1950 1220,1946 1191,1941 1162,1936 1133,1930 1103,1925 1074,1918 1044,1912 1014,1904 984,1897 954,1889 923,1881 893,1873 862,1864 831,1855 800,1846 769,1836 737,1826 706,1816 675,1806 643,1795 611,1784 580,1774 548,1762 517,1751 485,1740 454,1729 423,1717 393,1706 362,1694 332,1683 303,1672 273,1661 244,1649 216,1638 187,1628 159,1617 132,1607 104,1596 77,1586 50,1577 23,1567 -2,1558 -28,1550 -54,1542 -80,1534 -105,1527 -130,1521 -155,1515 -179,1510 -203,1506 -227,1503 -251,1501 -274,1499 -296,1499 -319,1500 -341,1502 -362,1505 -383,1510 -404,1516 -424,1524 -444,1533 -463,1544 -482,1556 "/> <polygon transform="translate(0,128)" points="-254,1873 -289,1892 -323,1912 -355,1934 -385,1957 -414,1983 -441,2009 -466,2037 -488,2066 -508,2097 -526,2128 -541,2161 -554,2195 -564,2229 -571,2264 -574,2300 -575,2336 -573,2372 -568,2409 -559,2446 -547,2483 -531,2520 -512,2557 -489,2594 -463,2630 -434,2666 -400,2701 -363,2736 -322,2770 -278,2803 -229,2835 -177,2866 -121,2896 -61,2925 2,2953 70,2980 142,3005 218,3029 298,3052 382,3073 469,3093 559,3112 652,3129 748,3145 847,3159 947,3172 1050,3184 1155,3194 1261,3203 1369,3211 1478,3217 1587,3221 1698,3225 1809,3227 1920,3228 2031,3227 2142,3225 2252,3221 2362,3217 2470,3210 2578,3203 2684,3194 2789,3184 2892,3172 2993,3159 3091,3145 3187,3129 3280,3112 3371,3093 3458,3073 3541,3052 3621,3029 3697,3005 3769,2980 3837,2953 3901,2925 3962,2896 4018,2866 4071,2835 4120,2803 4166,2770 4208,2736 4246,2701 4282,2666 4314,2630 4343,2594 4369,2557 4391,2520 4411,2483 4428,2446 4442,2409 4454,2372 4463,2336 4469,2300 4473,2264 4475,2229 4474,2195 4472,2161 4467,2128 4461,2097 4453,2066 4443,2037 4432,2009 4419,1983 4405,1957 4390,1934 4374,1912 4358,1892 4340,1873 4322,1857 4303,1842 4284,1828 4264,1816 4244,1806 4223,1797 4202,1788 4181,1781 4159,1776 4136,1770 4114,1766 4091,1763 4067,1760 4043,1757 4019,1755 3995,1754 3970,1753 3945,1752 3920,1751 3894,1750 3868,1750 3842,1749 3816,1749 3789,1748 3762,1747 3735,1746 3707,1745 3680,1743 3652,1742 3623,1740 3595,1737 3566,1734 3536,1731 3507,1728 3477,1723 3446,1719 3416,1714 3385,1708 3354,1702 3322,1696 3291,1689 3259,1682 3228,1675 3196,1668 3164,1661 3133,1654 3102,1646 3070,1639 3039,1632 3008,1624 2977,1617 2946,1610 2916,1603 2885,1596 2855,1590 2825,1583 2795,1577 2765,1571 2736,1565 2706,1560 2677,1555 2648,1550 2619,1546 2590,1542 2562,1538 2533,1535 2505,1532 2477,1530 2448,1528 2420,1526 2392,1525 2364,1525 2336,1525 2308,1526 2280,1528 2251,1530 2223,1532 2194,1535 2166,1538 2137,1542 2108,1546 2079,1550 2049,1555 2019,1560 1989,1565 1959,1571 1928,1577 1898,1583 1866,1590 1835,1596 1803,1603 1771,1610 1738,1617 1705,1624 1672,1632 1638,1639 1604,1646 1569,1654 1534,1661 1499,1668 1463,1675 1427,1682 1391,1689 1354,1696 1317,1702 1280,1708 1242,1714 1204,1719 1166,1723 1128,1728 1089,1731 1051,1734 1012,1737 972,1740 933,1742 893,1743 853,1745 813,1746 772,1747 731,1748 690,1749 649,1749 608,1750 566,1750 524,1751 482,1752 439,1753 397,1754 354,1755 312,1757 269,1760 227,1763 184,1766 142,1770 100,1776 58,1781 17,1788 -23,1797 -64,1806 -103,1816 -142,1828 -181,1842 -218,1857 "/> </g> </svg>